<?xml version="1.0" standalone="no"?><!-- Generator: Gravit.io --><svg xmlns="http://www.w3.org/2000/svg" xmlns:xlink="http://www.w3.org/1999/xlink" style="isolation:isolate" viewBox="0 0 45 43.82" width="45" height="43.82"><path d=" M 11.1 16.3 C 10 14.5 8.1 13.2 5.9 13.2 C 2.6 13.2 0 15.9 0 19.1 C 0 22.4 2.6 25.1 5.9 25.1 C 7.6 25.1 9.2 24.3 10.3 23.1 C 11.6 22.6 13 22.3 14.5 22.3 C 21.1 22.3 26.4 27.6 26.4 34.2 C 26.4 34.5 26.4 34.8 26.4 35.1 C 25.9 35.9 25.6 36.9 25.6 37.9 C 25.6 41.2 28.3 43.8 31.5 43.8 C 34.8 43.8 37.4 41.2 37.4 37.9 C 37.4 35.3 35.8 33.1 33.4 32.3 C 31.2 30.2 29.8 27.2 29.8 23.8 C 29.8 19.5 32.2 15.7 35.7 13.6 C 38.6 13.2 40.9 10.8 40.9 7.7 C 40.9 4.5 38.2 1.8 35 1.8 C 31.7 1.8 29.1 4.5 29.1 7.7 C 29.1 8.3 29.2 8.8 29.3 9.3 Q 29.2 9.6 29.1 10 C 27.6 14.8 23.1 18.3 17.8 18.3 C 15.3 18.3 13 17.6 11.1 16.3 Z " fill="rgb(0,255,0)"/><path d=" M 31.1 1.3 C 28.8 0.4 26.3 0 23.8 0 L 23.7 0 C 20.9 0 18.1 0.6 15.5 1.7 C 12.9 2.7 10.6 4.3 8.7 6.2 C 7.1 7.8 5.7 9.7 4.7 11.7 C 5.1 11.7 5.5 11.6 5.9 11.6 C 7.7 11.6 9.4 12.3 10.7 13.4 C 11.3 12.3 12.1 11.4 13 10.5 C 14.4 9.1 16 8 17.8 7.2 C 19.7 6.4 21.7 6 23.7 6 L 23.7 6 C 23.7 6 23.8 6 23.8 6 C 25 6 26.3 6.2 27.6 6.5 C 27.9 4.3 29.3 2.4 31.1 1.3 Z  M 42 10.4 C 42.5 11.2 42.9 12.1 43.3 13 C 44.4 15.6 45 18.4 45 21.3 L 45 21.3 C 45 24.1 44.4 26.9 43.3 29.6 C 42.3 32 40.7 34.3 38.8 36.2 C 38.4 34.1 37 32.4 35.2 31.3 C 36.2 30.1 37.1 28.7 37.8 27.2 C 38.6 25.3 39 23.3 39 21.3 C 39 21.3 39 21.3 39 21.3 L 39 21.3 C 39 19.2 38.6 17.2 37.8 15.3 C 37.7 15.2 37.6 15 37.5 14.8 C 39.6 14.1 41.2 12.4 42 10.4 Z  M 25.6 42.5 C 25 42.5 24.3 42.5 23.7 42.5 L 23.7 42.5 C 20.9 42.5 18.1 42 15.4 40.9 C 12.9 39.8 10.6 38.2 8.7 36.3 C 6.8 34.4 5.2 32.1 4.1 29.5 C 3.7 28.4 3.3 27.3 3 26.1 C 3.9 26.4 4.9 26.6 5.9 26.6 C 7.1 26.6 8.2 26.4 9.2 25.9 C 9.3 26.3 9.5 26.8 9.7 27.2 C 10.5 29 11.6 30.6 13 32 C 14.3 33.4 16 34.5 17.8 35.3 C 19.7 36.1 21.7 36.5 23.7 36.5 C 23.7 36.5 23.7 36.5 23.7 36.5 L 23.7 36.5 C 23.9 36.5 24 36.5 24.2 36.5 C 24.1 37 24 37.4 24 37.9 C 24 39.6 24.6 41.2 25.6 42.5 Z " fill-rule="evenodd" fill="rgb(209,209,209)"/></svg>